# Blender 4.0.2
# www.blender.org
mtllib rock_canyon.mtl
o Rock_Type2_02_mesh.001
v 0.013140 0.006835 0.008571
v 0.009337 0.016021 0.002580
v 0.005202 0.013636 -0.000933
v 0.011385 0.001378 0.008158
v 0.005803 0.003284 0.002172
v 0.009097 -0.001107 0.000421
v 0.012317 -0.002166 0.003940
v 0.011572 0.001111 0.008028
v 0.013015 0.017459 0.000738
v 0.018402 0.015031 0.001394
v 0.007316 0.014283 -0.003299
v 0.010905 0.012494 -0.006280
v 0.015287 0.013989 -0.007253
v 0.014635 0.015588 -0.005789
v 0.012846 0.016711 -0.004135
v 0.019541 0.008127 0.006261
v 0.020677 0.012897 0.002491
v 0.015928 0.001580 -0.007437
v 0.018479 0.009739 -0.007979
v 0.023073 0.007065 -0.002818
v 0.013173 -0.002090 -0.003340
v 0.015930 0.000751 -0.007142
v 0.018159 0.000480 0.005248
v 0.015041 -0.002860 0.002280
v 0.020429 0.002819 0.004815
v 0.022974 0.005205 -0.002251
v 0.019004 0.001010 -0.004412
v 0.015146 -0.002814 0.000544
v -0.013959 0.013073 0.012386
v -0.018549 0.005989 0.021360
v -0.007764 0.008626 0.024658
v -0.010206 -0.001603 0.021155
v 0.000537 0.001839 0.026150
v -0.004624 0.001907 0.025955
v -0.022373 0.001015 0.009789
v -0.017151 0.001621 0.022000
v -0.014836 -0.000113 0.022811
v -0.014312 -0.001152 0.021509
v -0.005038 0.013073 0.008448
v 0.000581 0.001873 0.026147
v 0.001329 -0.000164 0.023628
v 0.000575 0.001816 0.026122
v 0.008881 0.000596 0.011405
v 0.002497 -0.000331 0.000196
v 0.011135 0.005668 0.010757
v 0.009275 0.004365 0.004774
v 0.009536 0.003302 0.005877
v 0.010650 0.002717 0.009744
v 0.006015 0.012308 0.006149
v -0.001087 0.012760 -0.000268
v 0.009494 0.011200 0.008350
v 0.009368 0.007618 0.004409
v 0.010356 0.009469 0.007341
v -0.004214 0.012551 -0.003528
v -0.017969 0.012877 0.009795
v -0.021860 0.008186 0.015115
v -0.015021 0.012484 -0.000260
v -0.007780 -0.001603 -0.001260
v 0.001046 -0.000529 -0.001385
v 0.001351 0.002984 -0.003634
v -0.000468 0.006685 -0.006141
v -0.001431 0.007195 -0.006533
v -0.022495 0.001209 0.009627
v -0.021232 -0.000236 0.009278
v -0.022256 0.000848 0.009650
v -0.017574 0.005896 -0.002132
v -0.022902 0.002159 0.009253
v -0.013758 0.002851 -0.004521
v -0.012817 -0.001036 -0.001951
v -0.006466 0.008171 0.025090
v -0.006705 0.008384 0.025004
v 0.001163 0.003212 0.025997
v 0.008775 0.008883 0.016486
v 0.008801 0.008758 0.016595
v -0.011018 0.017794 -0.013456
v -0.012166 0.025428 -0.003855
v -0.001018 0.025943 -0.006950
v -0.004016 0.020668 0.002326
v 0.007605 0.022968 -0.001121
v 0.002659 0.024350 -0.000576
v -0.019295 0.014630 -0.001438
v -0.010450 0.024398 0.000321
v -0.007925 0.023974 0.001891
v -0.007804 0.022342 0.002502
v -0.003849 0.011529 -0.015564
v 0.007644 0.022962 -0.001160
v 0.007628 0.019877 0.000081
v 0.007633 0.022925 -0.001110
v 0.010803 0.006655 -0.004622
v 0.001196 -0.001938 -0.005679
v 0.012509 0.006780 -0.009942
v 0.008879 0.001510 -0.009927
v 0.009527 0.002148 -0.008667
v 0.011851 0.005190 -0.007295
v 0.005898 0.005916 -0.016804
v -0.002904 0.002295 -0.017913
v 0.009944 0.006585 -0.015641
v 0.008710 0.002039 -0.013154
v 0.010509 0.004931 -0.014336
v -0.006903 0.000192 -0.018118
v -0.015636 0.016570 -0.013395
v -0.017403 0.021310 -0.007082
v -0.016069 0.006390 -0.015870
v -0.008937 -0.000547 -0.003505
v -0.000676 -0.003004 -0.005693
v -0.001262 -0.004188 -0.009661
v -0.003949 -0.004923 -0.013602
v -0.005008 -0.004853 -0.014067
v -0.019470 0.014571 -0.001650
v -0.018326 0.013479 -0.000508
v -0.019221 0.014421 -0.001327
v -0.018803 0.003635 -0.009676
v -0.020017 0.014611 -0.002602
v -0.015832 -0.000523 -0.007826
v -0.013948 0.000481 -0.003578
v 0.000369 0.025825 -0.006573
v 0.000106 0.025877 -0.006768
v 0.008090 0.023018 -0.002557
v 0.011983 0.013603 -0.011320
v 0.012048 0.013660 -0.011176
vn -0.6496 -0.6467 0.3999
vn 0.7197 -0.6939 0.0250
vn -0.3553 0.5485 -0.7569
vn -0.6931 0.1699 0.7005
vn 0.4214 0.8941 -0.1517
vn -0.2178 0.0032 -0.9760
vn -0.4146 0.9015 -0.1240
vn 0.1677 0.5863 0.7925
vn 0.7255 0.6019 -0.3339
vn -0.6888 -0.2447 -0.6824
vn 0.1963 -0.7473 0.6348
vn 0.3870 -0.8509 -0.3552
vn 0.6544 -0.2520 -0.7129
vn 0.9326 0.0590 0.3560
vn -0.2706 -0.9618 -0.0418
vn 0.3667 -0.1869 0.9114
vn 0.5536 0.6073 -0.5698
vn -0.7097 -0.5000 -0.4963
vn 0.0540 -0.5417 -0.8388
vn -0.3423 0.8147 0.4680
vn 0.3685 -0.4092 0.8347
vn -0.8326 -0.5524 -0.0412
vn 0.0680 0.9977 -0.0050
vn -0.0336 -0.7877 0.6151
vn -0.0358 0.1265 0.9913
vn 0.9568 -0.0595 -0.2846
vn 0.6123 -0.7363 -0.2879
vn 0.1245 0.9513 0.2819
vn -0.0198 0.9988 -0.0449
vn 0.7322 -0.0968 -0.6741
vn 0.6909 -0.4314 -0.5801
vn 0.1211 -0.9926 0.0131
vn -0.8691 0.4138 -0.2710
vn -0.2722 0.3592 -0.8927
vn -0.6371 -0.7067 0.3076
vn -0.1103 -0.9938 -0.0119
vn -0.8911 -0.2277 0.3925
vn 0.9185 0.3514 0.1813
vn 0.8193 -0.3020 0.4874
vn -0.3017 0.0429 0.9524
vn 0.3472 0.6567 0.6694
vn 0.3141 -0.5199 -0.7944
vn -0.8095 -0.3787 0.4486
vn -0.1957 -0.9314 0.3069
vn -0.2080 0.7533 -0.6238
vn 0.6349 0.5408 0.5518
vn -0.7769 0.0596 0.6268
vn 0.0199 0.2485 -0.9684
vn 0.2001 0.3565 0.9126
vn 0.2799 0.9516 0.1272
vn 0.8158 -0.5623 -0.1349
vn 0.5181 -0.6478 0.5585
vn 0.1676 0.4812 -0.8604
vn -0.0761 0.2386 -0.9681
vn 0.4797 -0.8615 -0.1664
vn 0.4852 -0.8549 0.1835
vn 0.1613 -0.2962 0.9414
vn -0.9270 0.1253 -0.3535
vn -0.5603 -0.6363 -0.5303
vn -0.4732 0.2779 0.8360
vn -0.0655 -0.2503 0.9660
vn -0.7067 0.5626 0.4290
vn 0.9120 -0.0124 -0.4100
vn 0.9448 0.1181 0.3057
vn 0.0195 0.9726 0.2319
vn 0.5157 0.6882 -0.5103
vt 0.736111 0.267417
vt 0.752676 0.255382
vt 0.746349 0.235909
vt 0.725874 0.235909
vt 0.719546 0.255382
vt 0.751195 0.258709
vt 0.751195 0.241291
vt 0.736111 0.232583
vt 0.721027 0.241291
vt 0.721027 0.258709
vt 0.718694 0.232583
vt 0.753528 0.232583
vt 0.753528 0.267417
vt 0.718694 0.267417
vt 0.748427 0.262316
vt 0.753528 0.250000
vt 0.748427 0.237684
vt 0.723795 0.237684
vt 0.718694 0.250000
vt 0.723795 0.262316
vt 0.236111 0.751213
vt 0.248427 0.746112
vt 0.253528 0.733796
vt 0.248427 0.721480
vt 0.236111 0.716379
vt 0.223795 0.721480
vt 0.218694 0.733796
vt 0.223795 0.746112
vt 0.249728 0.744656
vt 0.253092 0.729921
vt 0.243668 0.718104
vt 0.228554 0.718104
vt 0.219131 0.729921
vt 0.222494 0.744656
vt 0.252676 0.739178
vt 0.246349 0.719706
vt 0.225874 0.719706
vt 0.219546 0.739178
vt 0.218694 0.716379
vt 0.253528 0.716379
vt 0.253528 0.751213
vt 0.251195 0.742505
vt 0.251195 0.725088
vt 0.221027 0.725088
vt 0.221027 0.742505
vt 0.218694 0.751213
vt 0.219907 0.246584
vt 0.232223 0.241482
vt 0.237325 0.229167
vt 0.232223 0.216851
vt 0.219907 0.211750
vt 0.207592 0.216851
vt 0.202490 0.229167
vt 0.207592 0.241482
vt 0.233525 0.240026
vt 0.236888 0.225291
vt 0.227464 0.213474
vt 0.212350 0.213474
vt 0.202927 0.225291
vt 0.206290 0.240026
vt 0.236472 0.234549
vt 0.230145 0.215076
vt 0.209670 0.215076
vt 0.203343 0.234549
vt 0.202490 0.211750
vt 0.237325 0.211750
vt 0.237325 0.246584
vt 0.234991 0.237875
vt 0.234991 0.220458
vt 0.204824 0.220458
vt 0.204824 0.237875
vt 0.202490 0.246584
s 0
usemtl color1
f 5/1/1 6/2/1 7/3/1 8/4/1 4/5/1
f 28/1/2 27/6/2 26/7/2 25/8/2 23/9/2 24/10/2
f 14/1/3 13/2/3 12/3/3 11/4/3 15/5/3
f 3/1/4 5/2/4 4/3/4 1/4/4 2/5/4
f 14/11/5 15/12/5 9/13/5 10/14/5
f 19/11/6 18/12/6 12/13/6 13/14/6
f 3/1/7 2/2/7 9/3/7 15/4/7 11/5/7
f 1/1/8 16/6/8 17/7/8 10/8/8 9/9/8 2/10/8
f 17/1/9 20/6/9 19/7/9 13/8/9 14/9/9 10/10/9
f 5/1/10 3/15/10 11/16/10 12/17/10 18/8/10 22/18/10 21/19/10 6/20/10
f 24/11/11 23/12/11 8/13/11 7/14/11
f 27/11/12 28/12/12 21/13/12 22/14/12
f 20/1/13 26/6/13 27/7/13 22/8/13 18/9/13 19/10/13
f 20/1/14 17/2/14 16/3/14 25/4/14 26/5/14
f 21/1/15 28/2/15 24/3/15 7/4/15 6/5/15
f 1/1/16 4/6/16 8/7/16 23/8/16 25/9/16 16/10/16
f 62/21/17 54/22/17 50/23/17 49/24/17 51/25/17 53/26/17 52/27/17 61/28/17
f 64/21/18 65/29/18 63/30/18 67/31/18 66/32/18 68/33/18 69/34/18
f 69/21/19 68/29/19 62/30/19 61/31/19 60/32/19 59/33/19 58/34/19
f 56/21/20 30/35/20 31/36/20 29/37/20 55/38/20
f 40/39/21 33/40/21 42/41/21
f 63/39/22 65/40/22 35/41/22
f 49/39/23 50/40/23 39/41/23
f 34/21/24 37/29/24 38/30/24 32/31/24 41/32/24 42/33/24 33/34/24
f 70/21/25 34/35/25 33/36/25 40/37/25 72/38/25
f 53/21/26 45/42/26 48/43/26 47/25/26 46/44/26 52/45/26
f 48/39/27 43/40/27 44/41/27 47/46/27
f 73/21/28 51/29/28 49/30/28 39/31/28 29/32/28 31/33/28 71/34/28
f 54/21/29 57/42/29 55/43/29 29/25/29 39/44/29 50/45/29
f 46/39/30 60/40/30 61/41/30 52/46/30
f 47/21/31 44/35/31 59/36/31 60/37/31 46/38/31
f 43/21/32 41/42/32 32/43/32 58/25/32 59/44/32 44/45/32
f 57/21/33 66/35/33 67/36/33 56/37/33 55/38/33
f 62/21/34 68/35/34 66/36/34 57/37/34 54/38/34
f 35/21/35 65/42/35 64/43/35 38/25/35 37/44/35 36/45/35
f 58/21/36 32/35/36 38/36/36 64/37/36 69/38/36
f 56/21/37 67/42/37 63/43/37 35/25/37 36/44/37 30/45/37
f 45/21/38 53/35/38 51/36/38 73/37/38 74/38/38
f 45/21/39 74/22/39 72/23/39 40/24/39 42/25/39 41/26/39 43/27/39 48/28/39
f 30/21/40 36/29/40 37/30/40 34/31/40 70/32/40 71/33/40 31/34/40
f 73/21/41 71/35/41 70/36/41 72/37/41 74/38/41
f 108/47/42 100/48/42 96/49/42 95/50/42 97/51/42 99/52/42 98/53/42 107/54/42
f 110/47/43 111/55/43 109/56/43 113/57/43 112/58/43 114/59/43 115/60/43
f 115/47/44 114/55/44 108/56/44 107/57/44 106/58/44 105/59/44 104/60/44
f 102/47/45 76/61/45 77/62/45 75/63/45 101/64/45
f 86/65/46 79/66/46 88/67/46
f 109/65/47 111/66/47 81/67/47
f 95/65/48 96/66/48 85/67/48
f 80/47/49 83/55/49 84/56/49 78/57/49 87/58/49 88/59/49 79/60/49
f 116/47/50 80/61/50 79/62/50 86/63/50 118/64/50
f 99/47/51 91/68/51 94/69/51 93/51/51 92/70/51 98/71/51
f 94/65/52 89/66/52 90/67/52 93/72/52
f 119/47/53 97/55/53 95/56/53 85/57/53 75/58/53 77/59/53 117/60/53
f 100/47/54 103/68/54 101/69/54 75/51/54 85/70/54 96/71/54
f 92/65/55 106/66/55 107/67/55 98/72/55
f 93/47/56 90/61/56 105/62/56 106/63/56 92/64/56
f 89/47/57 87/68/57 78/69/57 104/51/57 105/70/57 90/71/57
f 103/47/58 112/61/58 113/62/58 102/63/58 101/64/58
f 108/47/59 114/61/59 112/62/59 103/63/59 100/64/59
f 81/47/60 111/68/60 110/69/60 84/51/60 83/70/60 82/71/60
f 104/47/61 78/61/61 84/62/61 110/63/61 115/64/61
f 102/47/62 113/68/62 109/69/62 81/51/62 82/70/62 76/71/62
f 91/47/63 99/61/63 97/62/63 119/63/63 120/64/63
f 91/47/64 120/48/64 118/49/64 86/50/64 88/51/64 87/52/64 89/53/64 94/54/64
f 76/47/65 82/55/65 83/56/65 80/57/65 116/58/65 117/59/65 77/60/65
f 119/47/66 117/61/66 116/62/66 118/63/66 120/64/66
