{
	"asset":{
		"generator":"Khronos glTF Blender I/O v4.0.44",
		"version":"2.0"
	},
	"scene":0,
	"scenes":[
		{
			"name":"Scene",
			"nodes":[
				0
			]
		}
	],
	"nodes":[
		{
			"mesh":0,
			"name":"cassay.001",
			"rotation":[
				0.7071068286895752,
				0,
				0,
				0.7071068286895752
			]
		}
	],
	"materials":[
		{
			"doubleSided":true,
			"name":"Tronc.001",
			"pbrMetallicRoughness":{
				"baseColorTexture":{
					"index":0
				},
				"metallicFactor":0,
				"roughnessFactor":0.5
			}
		},
		{
			"doubleSided":true,
			"name":"sapin.001",
			"pbrMetallicRoughness":{
				"baseColorTexture":{
					"index":1
				},
				"metallicFactor":0,
				"roughnessFactor":0.5
			}
		}
	],
	"meshes":[
		{
			"name":"cassay.001",
			"primitives":[
				{
					"attributes":{
						"POSITION":0,
						"NORMAL":1,
						"TEXCOORD_0":2
					},
					"indices":3,
					"material":0
				},
				{
					"attributes":{
						"POSITION":4,
						"NORMAL":5,
						"TEXCOORD_0":6
					},
					"indices":7,
					"material":1
				}
			]
		}
	],
	"textures":[
		{
			"sampler":0,
			"source":0
		},
		{
			"sampler":0,
			"source":1
		}
	],
	"images":[
		{
			"mimeType":"image/png",
			"name":"tronc",
			"uri":"textures/tronc.png"
		},
		{
			"mimeType":"image/jpeg",
			"name":"sapin_feuilles",
			"uri":"textures/sapin_feuilles.jpg"
		}
	],
	"accessors":[
		{
			"bufferView":0,
			"componentType":5126,
			"count":118,
			"max":[
				0.008376000449061394,
				0.007846999913454056,
				-0.0014489999739453197
			],
			"min":[
				-0.009021000005304813,
				-0.009146999567747116,
				-0.03236699849367142
			],
			"type":"VEC3"
		},
		{
			"bufferView":1,
			"componentType":5126,
			"count":118,
			"type":"VEC3"
		},
		{
			"bufferView":2,
			"componentType":5126,
			"count":118,
			"type":"VEC2"
		},
		{
			"bufferView":3,
			"componentType":5123,
			"count":120,
			"type":"SCALAR"
		},
		{
			"bufferView":4,
			"componentType":5126,
			"count":870,
			"max":[
				0.03923000022768974,
				0.03665800020098686,
				-0.017582999542355537
			],
			"min":[
				-0.03851500153541565,
				-0.039792999625205994,
				-0.14712099730968475
			],
			"type":"VEC3"
		},
		{
			"bufferView":5,
			"componentType":5126,
			"count":870,
			"type":"VEC3"
		},
		{
			"bufferView":6,
			"componentType":5126,
			"count":870,
			"type":"VEC2"
		},
		{
			"bufferView":7,
			"componentType":5123,
			"count":870,
			"type":"SCALAR"
		}
	],
	"bufferViews":[
		{
			"buffer":0,
			"byteLength":1416,
			"byteOffset":0,
			"target":34962
		},
		{
			"buffer":0,
			"byteLength":1416,
			"byteOffset":1416,
			"target":34962
		},
		{
			"buffer":0,
			"byteLength":944,
			"byteOffset":2832,
			"target":34962
		},
		{
			"buffer":0,
			"byteLength":240,
			"byteOffset":3776,
			"target":34963
		},
		{
			"buffer":0,
			"byteLength":10440,
			"byteOffset":4016,
			"target":34962
		},
		{
			"buffer":0,
			"byteLength":10440,
			"byteOffset":14456,
			"target":34962
		},
		{
			"buffer":0,
			"byteLength":6960,
			"byteOffset":24896,
			"target":34962
		},
		{
			"buffer":0,
			"byteLength":1740,
			"byteOffset":31856,
			"target":34963
		}
	],
	"samplers":[
		{
			"magFilter":9729,
			"minFilter":9987
		}
	],
	"buffers":[
		{
			"byteLength":33596,
			"uri":"sapin.bin"
		}
	]
}
